# xmcd CD database file generated by Grip 2.94
# 
# Track frame offsets:
#       180
#       18728
#       29083
#       44611
#       53803
#       68328
#       82371
#       98233
#       117799
#       134001
#       147485
#       162347
#       173128
# 
# Disc length: 2337 seconds
# 
# Revision: 3
# Processed by: cddbd v1.4b41PL1 Copyright (c) Steve Scherf et al.
# Submitted via: Grip 2.94
# 
DISCID=c1091f0d
DTITLE=Mighty Blue Kings - Meet Me In Uptown
DYEAR=1900
DGENRE=
TTITLE0=Jumpin At The Green Mill
TTITLE1=Baby Drives Me Wild
TTITLE2=Grinnin Like A Chessy Cat
TTITLE3=Loose Lips
TTITLE4=Cadillac Boogie
TTITLE5=Buzz Buzz Buzz
TTITLE6=Big Mamou
TTITLE7=Spark Of My Life
TTITLE8=In The Night
TTITLE9=Meet Me In Uptown
TTITLE10=Rag Mop
TTITLE11=Pink Cadillac
TTITLE12=Tenor Madness
EXTD=
EXTT0=
EXTT1=
EXTT2=
EXTT3=
EXTT4=
EXTT5=
EXTT6=
EXTT7=
EXTT8=
EXTT9=
EXTT10=
EXTT11=
EXTT12=
PLAYORDER=
